<svg xmlns="http://www.w3.org/2000/svg" viewBox="0 0 400 500" role="img" aria-label="NSSC">
  <g transform="translate(0,500) scale(0.1,-0.1)" fill="#39ff14">
    <path d="M3180 2355 c93 -30 157 -60 238 -111 29 -19 56 -34 60 -34 4 0 22 27 40 60 l33 60 68 0 68 0 6 -212 c4 -116 7 -323 7 -460 l0 -248 -68 0 -69 0 -32 122 c-69 261 -152 436 -257 543 -103 105 -232 153 -381 142 -95 -7 -168 -41 -236 -109 -96 -95 -133 -216 -116 -373 10 -98 19 -128 59 -204 64 -119 166 -192 442 -315 212 -95 337 -158 418 -211 178 -115 285 -264 326 -455 13 -58 29 -642 29 -1045 l0 -100 -73 0 -74 0 -29 114 c-26 103 -57 211 -64 219 -2 2 -32 -20 -67 -48 -72 -59 -213 -131 -308 -157 -93 -25 -381 -25 -500 0 -125 27 -230 71 -316 133 -41 30 -79 54 -83 54 -22 0 -83 -271 -102 -447 -17 -169 -7 -479 21 -608 94 -441 336 -745 650 -819 84 -20 256 -20 340 -1 105 25 221 88 306 168 87 81 178 214 225 325 17 43 33 78 34 80 3 4 104 -46 122 -60 15 -12 -37 -137 -105 -253 -202 -345 -503 -507 -917 -492 -148 5 -240 24 -365 73 -208 82 -412 262 -541 475 l-36 59 -6 -137 c-4 -75 -7 -194 -7 -264 0 -70 -3 -134 -6 -143 -5 -12 -21 -16 -75 -16 l-69 0 -29 52 c-17 29 -34 59 -39 67 -7 12 -25 7 -99 -32 -193 -100 -376 -142 -578 -134 -411 16 -699 238 -802 618 -27 100 -24 320 5 424 32 110 76 188 151 268 112 118 262 204 605 346 253 105 334 151 418 236 90 92 135 230 126 381 -4 59 -12 89 -42 148 -95 193 -304 268 -542 195 -62 -19 -182 -91 -191 -114 -7 -19 22 -69 56 -98 38 -31 119 -62 234 -89 l87 -21 0 -63 0 -64 -500 0 -500 0 0 65 c0 62 1 65 28 71 220 50 274 77 317 163 44 86 47 148 52 934 5 785 2 854 -38 962 -41 109 -169 202 -331 241 l-68 17 0 63 0 64 348 -1 347 0 670 -972 670 -972 3 704 c2 763 -1 825 -51 934 -13 30 -38 64 -55 76 -41 29 -139 65 -234 86 l-78 17 0 64 0 64 513 0 c416 0 522 3 567 15 91 24 284 14 390 -20z"/>
    <path d="M690 3690 c0 -366 3 -708 6 -761 l7 -96 58 24 c118 47 206 65 334 65 147 0 239 -21 375 -89 80 -39 109 -60 185 -137 135 -135 200 -277 212 -459 l6 -88 42 88 c24 48 59 113 78 143 l35 54 -43 61 c-23 33 -318 458 -655 945 -336 487 -618 892 -626 900 -12 12 -14 -79 -14 -650z"/>
    <path d="M2300 3347 c0 -387 5 -453 41 -563 l10 -32 107 54 c303 152 648 159 974 19 17 -7 17 -4 4 32 -30 86 -72 151 -140 219 -77 78 -114 99 -326 189 -216 91 -378 175 -460 236 -86 65 -112 91 -169 173 l-41 59 0 -386z"/>
    <path d="M2843 2750 c-111 -22 -244 -96 -328 -180 l-56 -57 37 -49 c94 -126 216 -218 338 -257 101 -32 285 -31 369 2 106 42 180 114 222 217 23 56 23 59 7 87 -26 45 -152 159 -208 189 -28 15 -77 34 -109 43 -63 16 -201 18 -272 5z"/>
    <path d="M1755 1764 c-26 -49 -134 -156 -207 -206 -78 -52 -235 -127 -463 -218 -227 -91 -281 -120 -355 -189 -71 -66 -123 -150 -151 -244 -29 -94 -24 -284 10 -370 42 -108 119 -185 228 -228 51 -20 76 -23 203 -24 134 0 151 2 220 28 225 83 392 310 501 682 36 121 36 123 24 436 -5 130 -4 223 4 279 6 46 10 85 8 86 -2 2 -11 -13 -22 -32z"/>
  </g>
</svg>
