<svg xmlns="http://www.w3.org/2000/svg" viewBox="0 0 400 500" width="400" height="500" role="img" aria-label="NSSC">
  <path fill="#39ff14" transform="translate(339,23)" d="M0 0 C0.99257813 0.53753906 1.98515625 1.07507813 3.0078125 1.62890625 C5.01674303 2.73413292 7.01474404 3.85296322 9 5 C9.34289062 4.13375 9.68578125 3.2675 10.0390625 2.375 C11.74569582 -1.25685021 13.2573514 -4.05498957 16 -7 C20.81208453 -8.07051826 25.15001976 -7.72648802 30 -7 C31.09006853 3.29488697 31.21589065 13.55122003 31.31640625 23.890625 C31.33702263 25.68951849 31.35802016 27.48840765 31.37937927 29.28729248 C31.43411703 33.98232476 31.48373567 38.67739717 31.53222656 43.37249756 C31.58279825 48.17935687 31.63829658 52.98615915 31.69335938 57.79296875 C31.8003486 67.19526521 31.90146438 76.59761114 32 86 C27.05 86 22.1 86 17 86 C15.14886841 80.60403284 13.48390372 75.21621477 12.01000977 69.70654297 C6.38806204 48.89923628 -1.79438905 24.65161325 -21 12.5625 C-32.5251424 6.22725092 -44.86697267 4.06221369 -57.625 7.625 C-67.75083857 11.01614453 -75.27716577 17.52967599 -80.25 27 C-83.39938325 33.40927117 -84.36524786 39.64566035 -84.3125 46.6875 C-84.30404053 47.87388062 -84.30404053 47.87388062 -84.29541016 49.08422852 C-84.02369212 62.30828794 -80.06732776 73.90434512 -70.9375 83.6875 C-59.17096839 94.67349883 -43.53963226 100.78243401 -29.00390625 107.21875 C2.96146859 121.3735969 2.96146859 121.3735969 16 132 C16.7734375 132.59941406 17.546875 133.19882813 18.34375 133.81640625 C32.59243897 145.50325902 39.36385711 162.03541723 41.70861816 179.99139404 C42.82003522 191.4671127 42.58989722 203.11384342 42.66955566 214.63482666 C42.6989724 218.40967409 42.74611641 222.18429551 42.79101562 225.95898438 C43.0214782 246.30575614 43.03623331 266.65218006 43 287 C37.72 287 32.44 287 27 287 C26.27683594 284.28910156 26.27683594 284.28910156 25.5390625 281.5234375 C24.90113734 279.14059939 24.26311121 276.7577883 23.625 274.375 C23.30789063 273.18519531 22.99078125 271.99539063 22.6640625 270.76953125 C22.3546875 269.61582031 22.0453125 268.46210938 21.7265625 267.2734375 C21.44377441 266.21560059 21.16098633 265.15776367 20.86962891 264.06787109 C20.0028735 261.0101371 19.02852773 258.00676882 18 255 C17.58492188 255.3403125 17.16984375 255.680625 16.7421875 256.03125 C-0.49617458 269.59113314 -19.06152488 276.38296833 -40.97460938 276.31567383 C-43.10079372 276.31253573 -45.22555126 276.33597158 -47.3515625 276.36132812 C-69.99163631 276.46772637 -90.29515395 270.40287654 -108 256 C-110.92554825 261.17728217 -112.25337632 266.32095482 -113.5625 272.0625 C-113.77938477 272.99698975 -113.99626953 273.93147949 -114.21972656 274.89428711 C-123.27565148 314.63935362 -122.05864115 358.95144249 -104 396 C-103.52820313 396.98355469 -103.05640625 397.96710938 -102.5703125 398.98046875 C-93.3308951 417.0678028 -78.59747177 432.16995909 -59.39453125 439.34765625 C-56.27620378 440.3307222 -53.17630814 441.22667601 -50 442 C-49.23429687 442.19078125 -48.46859375 442.3815625 -47.6796875 442.578125 C-28.21164412 445.64306477 -9.10490935 441.07392694 7.03515625 429.8984375 C22.06529321 418.19684531 31.14761182 401.43999973 38 384 C41.43931834 385.3073075 44.61300905 386.81036334 47.8125 388.625 C48.60269531 389.07101562 49.39289063 389.51703125 50.20703125 389.9765625 C50.79871094 390.31429688 51.39039063 390.65203125 52 391 C51.41071015 396.17444927 49.77657202 400.2923737 47.5625 404.9375 C47.21050537 405.67750244 46.85851074 406.41750488 46.49584961 407.17993164 C40.66647106 419.08374865 33.22613447 429.48607785 24 439 C23.39027344 439.68320312 22.78054688 440.36640625 22.15234375 441.0703125 C5.61082156 458.98151487 -19.81136825 466.02676619 -43.4609375 466.97631836 C-73.9029455 467.63899752 -101.0646057 457.31423926 -123.16748047 436.3503418 C-131.06826699 428.61905632 -137.29484869 420.43920958 -143 411 C-143.99 409.515 -143.99 409.515 -145 408 C-145.66 425.49 -146.32 442.98 -147 461 C-152.28 461 -157.56 461 -163 461 C-166.31272731 456.58303026 -168.18560968 453.91641248 -170 449 C-171.16273438 449.58007812 -172.32546875 450.16015625 -173.5234375 450.7578125 C-202.13020639 464.80513383 -232.89795655 472.43168715 -264.16137695 462.23095703 C-286.9557697 454.16713116 -302.74733778 438.92717835 -313.28515625 417.37109375 C-314.3382211 414.9406361 -315.20406593 412.52622554 -316 410 C-316.29777344 409.06027344 -316.59554688 408.12054688 -316.90234375 407.15234375 C-322.39303202 386.32821266 -320.245772 363.28823636 -310.1015625 344.31640625 C-294.1625399 319.16356204 -264.01150488 308.48277999 -237.66455078 297.78295898 C-210.85711241 286.99601021 -210.85711241 286.99601021 -192 266 C-186.57437031 253.04796327 -184.94971542 239.39002681 -189.70703125 226.01171875 C-194.5026558 215.08470209 -203.09485824 208.27683563 -214 204 C-226.66299651 200.35106609 -241.78772011 202.54450906 -253.16796875 208.71875 C-258.78156378 212.10590866 -258.78156378 212.10590866 -263 217 C-260.20501855 223.22308025 -256.9673886 226.28141414 -250.66796875 228.8359375 C-242.58030674 231.40262896 -234.28442118 233.19235007 -226 235 C-226 239.62 -226 244.24 -226 249 C-259 249 -292 249 -326 249 C-326 244.38 -326 239.76 -326 235 C-324.88882812 234.75765625 -323.77765625 234.5153125 -322.6328125 234.265625 C-306.55746853 231.37110831 -306.55746853 231.37110831 -294 222 C-287.61621747 210.03880746 -287.69909742 196.35803699 -287.70947266 183.13476562 C-287.70347245 181.58745505 -287.69666354 180.04014744 -287.68911743 178.49284363 C-287.67160884 174.32963386 -287.66676872 170.16650652 -287.66548586 166.00326347 C-287.66405585 163.39411966 -287.65977048 160.78499625 -287.65449142 158.17585754 C-287.63604622 149.05098153 -287.62781449 139.92616358 -287.62939453 130.80126953 C-287.63059669 122.33001143 -287.60946553 113.85900777 -287.5779072 105.38781404 C-287.55167187 98.0820893 -287.54103016 90.77644737 -287.54230535 83.47067595 C-287.54281255 79.12145719 -287.53726357 74.77246537 -287.51594925 70.42329407 C-287.49644191 66.3321931 -287.49652665 62.24153286 -287.51098251 58.15041542 C-287.51305583 56.65940512 -287.5084591 55.16836626 -287.4962616 53.6774044 C-287.40763349 42.08265786 -288.40970365 30.00566442 -296.1875 20.76953125 C-305.54084714 11.63792294 -317.27499311 7.058457 -330 5 C-330 0.05 -330 -4.9 -330 -10 C-321.15910028 -10.27193114 -312.32100835 -10.49169928 -303.476861 -10.62174606 C-299.36929669 -10.68418818 -295.264758 -10.7687407 -291.15893555 -10.90527344 C-287.19047711 -11.03640099 -283.22491216 -11.10755077 -279.25445366 -11.13852692 C-277.7458686 -11.16057463 -276.23742927 -11.20363903 -274.73008919 -11.26876068 C-262.95120687 -11.75705106 -262.95120687 -11.75705106 -258.12107849 -7.407547 C-255.74007614 -4.47159143 -253.86377256 -1.28601627 -252 2 C-250.96182674 3.51703353 -249.91187397 5.02623099 -248.83984375 6.51953125 C-247.86987826 7.94881555 -246.9024805 9.37984537 -245.9375 10.8125 C-244.82246589 12.45500533 -243.70653879 14.09690469 -242.58984375 15.73828125 C-242.00960449 16.59115723 -241.42936523 17.4440332 -240.83154297 18.32275391 C-237.58434003 23.06933182 -234.29034502 27.78327528 -231 32.5 C-225.60478375 40.23901346 -220.24892206 48.0028275 -214.93359375 55.796875 C-210.65880132 62.05676759 -206.33481478 68.28155603 -202 74.5 C-196.60507082 82.2392153 -191.24892401 90.00282465 -185.93359375 97.796875 C-181.65880132 104.05676759 -177.33481478 110.28155603 -173 116.5 C-168.13512709 123.47883097 -163.29316613 130.47171741 -158.5 137.5 C-152.36442178 146.49564242 -146.14852251 155.43441719 -139.921875 164.3671875 C-137.02518458 168.52351333 -134.13766451 172.68607565 -131.25488281 176.85205078 C-130.8433194 177.44667618 -130.43175598 178.04130157 -130.00772095 178.65394592 C-129.00507773 180.10258247 -128.00252893 181.55128436 -127 183 C-126.92957737 165.46558345 -126.87685034 147.93121172 -126.84456348 130.3966856 C-126.82916638 122.25309681 -126.80821579 114.10959644 -126.77368164 105.96606445 C-126.74355793 98.85910771 -126.72437317 91.75221508 -126.71773452 84.64519626 C-126.71386067 80.89028747 -126.7049108 77.13556191 -126.68280983 73.38071251 C-125.13097457 43.83409837 -125.13097457 43.83409837 -135 17 C-139.07384231 13.04619724 -143.39159583 11.54212734 -148.6875 9.875 C-149.48462402 9.61638184 -150.28174805 9.35776367 -151.10302734 9.09130859 C-156.68453103 7.31707832 -162.21173084 5.9335918 -168 5 C-168 0.05 -168 -4.9 -168 -10 C-166.74212173 -9.99555878 -165.48424347 -9.99111755 -164.18824768 -9.98654175 C-152.31513295 -9.9459412 -140.44203236 -9.91598943 -128.56886387 -9.89637566 C-122.46523195 -9.88595296 -116.36165622 -9.87182132 -110.25805664 -9.84912109 C-104.36418546 -9.82733887 -98.47036822 -9.81541999 -92.57645988 -9.81024551 C-90.33148284 -9.80655942 -88.08650863 -9.79936146 -85.84155464 -9.78853989 C-82.68930887 -9.77395359 -79.53728403 -9.77202506 -76.38500977 -9.77294922 C-75.002883 -9.76216339 -75.002883 -9.76216339 -73.59283447 -9.75115967 C-67.7989414 -9.76945628 -62.60353678 -10.56472388 -57 -12 C-36.55845721 -15.66735947 -17.75899585 -9.68986947 0 0 Z M-269 44 C-269 93.17 -269 142.34 -269 193 C-266.03 192.01 -263.06 191.02 -260 190 C-243.85574015 185.28516077 -243.85574015 185.28516077 -237 185 C-235.85402344 184.9484375 -234.70804688 184.896875 -233.52734375 184.84375 C-219.16246648 184.41428276 -206.01845409 186.65487112 -193 193 C-192.10023438 193.40734375 -191.20046875 193.8146875 -190.2734375 194.234375 C-173.63889314 202.38386359 -162.44906132 217.2445048 -155.92578125 234.28125 C-152.93558263 243.06259279 -152.4614466 251.78321133 -152 261 C-149.23021704 258.23021704 -147.86980889 254.86270395 -146.1875 251.375 C-143.97673408 246.82357176 -141.78271858 242.46981665 -138.875 238.3125 C-136.64673208 235.272516 -136.64673208 235.272516 -137.59375 232.72265625 C-139.34624717 229.329627 -141.4284833 226.23884809 -143.625 223.125 C-144.099375 222.44373047 -144.57375 221.76246094 -145.0625 221.06054688 C-146.12062995 219.54183499 -147.18097625 218.02466566 -148.24316406 216.50878906 C-150.81515483 212.83594621 -153.37338611 209.153569 -155.93310547 205.47216797 C-157.31949925 203.47855139 -158.70655156 201.48539261 -160.09423828 199.49267578 C-164.34414047 193.38903932 -168.57200667 187.27110954 -172.77734375 181.13671875 C-176.82504121 175.23933165 -180.91193716 169.36945335 -185 163.5 C-189.94893338 156.39454817 -194.88128005 149.27868322 -199.77734375 142.13671875 C-203.82504121 136.23933165 -207.91193716 130.36945335 -212 124.5 C-216.94893338 117.39454817 -221.88128005 110.27868322 -226.77734375 103.13671875 C-231.51285903 96.23719945 -236.30082776 89.37425108 -241.08447266 82.50805664 C-245.03644587 76.83257092 -248.96805454 71.14405119 -252.875 65.4375 C-256.42235452 60.26610354 -259.99988121 55.11724009 -263.625 50 C-264.05151855 49.39341553 -264.47803711 48.78683105 -264.91748047 48.16186523 C-265.91924871 46.75587834 -266.95594973 45.37488101 -268 44 C-268.33 44 -268.66 44 -269 44 Z M-108 107 C-108.0931896 117.18883531 -108.16401124 127.37756716 -108.20724869 137.56674385 C-108.22801352 142.29937045 -108.25612494 147.03170282 -108.30175781 151.76416016 C-108.3456159 156.34185502 -108.36922031 160.9192691 -108.37950897 165.49715805 C-108.38682936 167.23285204 -108.40112158 168.96853284 -108.42292023 170.70410538 C-108.55344932 181.53981322 -107.68263833 190.74140822 -104 201 C-99.97059111 199.41909382 -96.1340632 197.59984989 -92.25 195.6875 C-65.42557701 182.93031511 -33.72225527 181.01108627 -5.5625 190.625 C-4.38816406 191.05039063 -3.21382813 191.47578125 -2.00390625 191.9140625 C0.33408973 192.75926781 2.57803748 193.46443089 5 194 C0.95475219 179.30936323 -7.86568505 167.69708237 -21 160 C-30.24695764 155.11065494 -39.96617917 151.13860051 -49.5625 147 C-70.80388781 137.82338601 -91.3724652 128.65056544 -105.1796875 109.4140625 C-105.78039062 108.61742187 -106.38109375 107.82078125 -107 107 C-107.33 107 -107.66 107 -108 107 Z M-90.91796875 222.953125 C-92.26757558 224.98060795 -92.26757558 224.98060795 -91.5078125 227.3828125 C-89.66144821 230.58764171 -87.40603879 233.20721759 -84.875 235.875 C-84.37782471 236.40311279 -83.88064941 236.93122559 -83.3684082 237.4753418 C-81.92348187 238.99488108 -80.46476105 240.49960254 -79 242 C-78.33613281 242.68964844 -77.67226563 243.37929688 -76.98828125 244.08984375 C-66.37971841 254.23816525 -51.76517338 258.84291855 -37.3125 259.3125 C-35.87280767 259.24509867 -34.43460619 259.13842691 -33 259 C-32.07960938 258.91878906 -31.15921875 258.83757812 -30.2109375 258.75390625 C-20.36511109 257.51999777 -11.41608109 253.67447298 -4 247 C-2.00754425 244.39954994 -2.00754425 244.39954994 -0.3125 241.5625 C0.26886719 240.63566406 0.85023438 239.70882812 1.44921875 238.75390625 C4.26039543 233.9189369 4.26039543 233.9189369 4.84375 228.4921875 C1.27519494 217.95173319 -9.57236229 210.66385359 -18.9375 205.6875 C-43.96929804 193.8353229 -72.45988694 204.15670768 -90.91796875 222.953125 Z M-163 300 C-164.04790714 301.31216199 -165.06225628 302.65115198 -166.0625 304 C-181.6911182 324.16595896 -205.22434015 333.025616 -228.3125 342.125 C-250.39030964 350.83898748 -269.70485152 359.14023019 -279.95703125 382.12890625 C-282.43437615 388.94856356 -283.36308981 395.04278464 -283.3125 402.25 C-283.30758545 403.08192871 -283.3026709 403.91385742 -283.29760742 404.77099609 C-283.09832546 415.31147902 -280.80283303 424.14015398 -275 433 C-274.13375 434.3303125 -274.13375 434.3303125 -273.25 435.6875 C-264.33687149 444.84821541 -251.98489528 449.03649692 -239.41430664 449.24169922 C-221.28683434 449.30245171 -206.83516793 444.74471948 -193.75 431.84765625 C-180.3569032 417.97895232 -173.14541372 402.00749136 -167 384 C-166.68691895 383.08637695 -166.37383789 382.17275391 -166.05126953 381.23144531 C-162.29470479 370.01146741 -160.2143726 360.87163216 -162 349 C-163.3764721 332.56836427 -162.87641524 316.4351167 -162 300 C-162.33 300 -162.66 300 -163 300 Z"/>
</svg>
